<?xml version="1.0" standalone="no"?>
<!DOCTYPE svg PUBLIC "-//W3C//DTD SVG 20010904//EN"
 "http://www.w3.org/TR/2001/REC-SVG-20010904/DTD/svg10.dtd">
<svg version="1.0" xmlns="http://www.w3.org/2000/svg"
 width="469.000000pt" height="447.000000pt" viewBox="0 0 469.000000 447.000000"
 preserveAspectRatio="xMidYMid meet">

<g transform="translate(0.000000,447.000000) scale(0.100000,-0.100000)"
fill="#000000" stroke="none">
<path d="M2285 4280 c-113 -19 -206 -63 -270 -130 -20 -21 -38 -30 -60 -30
-46 0 -138 -26 -196 -56 -151 -76 -251 -271 -234 -458 9 -107 37 -213 81 -303
l36 -75 -29 -32 c-43 -46 -53 -78 -53 -164 1 -116 37 -181 121 -216 30 -13 38
-22 44 -53 21 -113 97 -252 185 -339 l50 -49 -10 -60 c-5 -34 -18 -85 -28
-115 l-19 -55 -114 -37 c-63 -20 -146 -46 -186 -58 -62 -19 -73 -26 -82 -51
-9 -27 -13 -29 -63 -29 -199 -1 -435 -142 -544 -326 -96 -162 -104 -213 -104
-629 0 -334 0 -334 22 -349 20 -14 178 -16 1488 -16 1310 0 1468 2 1488 16 22
15 22 15 22 349 0 346 -6 414 -46 516 -98 248 -360 438 -604 439 -52 0 -56 2
-67 29 -11 31 -23 36 -310 121 l-73 22 -20 64 c-10 35 -22 87 -26 115 -7 50
-7 51 43 102 91 94 152 206 182 333 11 44 17 53 39 57 15 3 44 21 64 41 94 92
88 299 -10 361 -37 23 -37 14 9 165 40 132 51 325 25 426 -59 226 -214 372
-479 448 -96 28 -201 38 -272 26z m272 -133 c327 -115 447 -338 367 -687 -8
-38 -19 -70 -22 -70 -4 1 -18 24 -31 53 -32 68 -103 142 -166 175 -45 24 -65
27 -200 33 -207 8 -301 39 -443 143 -34 25 -69 46 -78 46 -49 0 -170 -119
-224 -221 -17 -33 -42 -101 -54 -152 l-23 -92 -24 75 c-19 61 -24 97 -24 190
0 103 3 121 26 171 58 122 164 195 302 206 70 6 74 7 120 54 84 82 166 111
307 105 68 -3 116 -11 167 -29z m-510 -471 c143 -92 267 -128 454 -130 117 -2
128 -4 172 -29 78 -46 128 -134 152 -271 15 -88 28 -106 81 -106 48 0 64 -29
64 -113 0 -58 -3 -71 -24 -92 -13 -13 -37 -27 -53 -30 -60 -14 -59 -11 -87
-130 -81 -343 -406 -505 -713 -355 -134 66 -230 196 -268 365 -24 107 -23 104
-70 116 -62 16 -87 47 -93 114 -6 70 11 113 47 121 14 2 37 10 51 17 24 12 25
17 31 147 8 150 26 217 81 303 27 42 94 117 104 117 2 0 34 -20 71 -44z m88
-1388 c88 -32 261 -32 364 0 40 13 74 22 76 20 1 -2 10 -34 19 -73 10 -38 26
-89 36 -112 18 -42 18 -44 -7 -210 -14 -93 -27 -170 -30 -173 -9 -9 -477 -11
-518 -3 l-40 9 -24 164 c-23 159 -23 165 -6 209 9 25 24 73 32 106 20 82 21
85 31 85 4 0 35 -10 67 -22z m-190 -638 c31 -206 67 -444 81 -529 13 -85 22
-156 21 -157 -2 -3 -283 445 -337 538 l-22 37 46 57 c25 31 46 62 46 70 0 8
-29 73 -65 144 -36 71 -65 134 -65 138 0 7 229 82 237 78 1 -1 27 -170 58
-376z m1043 305 c2 -2 -29 -66 -68 -144 -79 -159 -79 -151 -9 -228 l39 -42
-102 -163 c-55 -90 -133 -215 -171 -278 -39 -63 -75 -121 -82 -128 -7 -8 -4
39 11 135 13 81 48 317 79 523 31 206 58 380 60 386 2 8 42 0 122 -24 65 -19
119 -36 121 -37z m-1373 -178 c25 -51 45 -97 45 -101 0 -4 -20 -31 -45 -58
-25 -28 -45 -58 -45 -69 0 -17 33 -73 338 -567 73 -117 132 -215 132 -218 0
-2 -255 -4 -566 -4 l-566 0 5 308 c5 334 10 369 66 480 43 86 106 158 184 213
39 27 74 49 78 49 4 0 -1 -20 -12 -45 -24 -55 -49 -179 -49 -246 0 -46 -3 -51
-59 -106 -76 -75 -105 -147 -98 -244 5 -77 43 -169 80 -194 23 -15 28 -14 68
1 60 23 69 32 69 64 0 36 -21 52 -62 48 -30 -3 -33 -1 -45 42 -46 157 105 305
254 249 40 -15 92 -67 114 -114 26 -56 24 -81 -6 -89 -34 -9 -44 -51 -19 -76
26 -25 103 -36 128 -17 16 12 19 27 19 89 0 168 -120 305 -285 324 l-56 7 5
56 c11 126 72 263 132 296 14 8 54 14 88 15 l63 0 45 -93z m1583 70 c46 -49
94 -187 107 -308 l6 -64 -39 -16 c-79 -33 -127 -138 -103 -226 51 -191 310
-212 386 -31 43 103 -2 209 -114 270 -27 15 -31 23 -31 57 0 56 -26 173 -54
243 l-24 60 26 -7 c92 -22 236 -150 295 -262 64 -123 69 -153 74 -495 l5 -308
-571 0 c-315 0 -570 3 -568 8 3 4 65 104 138 222 73 118 177 287 231 374 59
96 98 170 98 186 0 16 -11 37 -26 51 -14 13 -35 36 -45 51 l-19 27 47 95 48
96 56 0 c45 0 60 -4 77 -23z m-618 -227 c0 -3 -7 -48 -16 -100 -16 -102 -114
-748 -114 -756 0 -2 -60 -4 -133 -4 l-132 0 -39 258 c-22 141 -51 336 -66 432
l-26 175 263 0 c145 0 263 -2 263 -5z m852 -269 c27 -24 33 -36 33 -71 0 -35
-6 -47 -33 -71 -44 -40 -93 -40 -133 0 -62 62 -20 171 65 171 25 0 45 -9 68
-29z"/>
</g>
</svg>
