<?xml version="1.0" standalone="no"?>
<!DOCTYPE svg PUBLIC "-//W3C//DTD SVG 20010904//EN"
 "http://www.w3.org/TR/2001/REC-SVG-20010904/DTD/svg10.dtd">
<svg version="1.0" xmlns="http://www.w3.org/2000/svg"
 width="512.000000pt" height="512.000000pt" viewBox="0 0 512.000000 512.000000"
 preserveAspectRatio="xMidYMid meet">

<g transform="translate(0.000000,512.000000) scale(0.100000,-0.100000)"
fill="#000000" stroke="none">
<path d="M2315 5104 c-74 -27 -144 -118 -145 -186 l0 -28 -274 0 c-166 0 -286
-4 -302 -10 -48 -19 -53 -36 -54 -162 l0 -118 -344 0 c-353 0 -397 -4 -416
-40 -6 -12 -10 -218 -10 -538 l0 -519 23 -21 c31 -29 77 -29 105 1 22 23 22
25 22 490 l0 467 310 0 310 0 0 -122 c1 -133 6 -149 54 -168 38 -14 1894 -14
1932 0 48 19 53 35 54 168 l0 122 310 0 310 0 0 -2140 0 -2140 -1640 0 -1640
0 0 1569 c0 863 -3 1577 -6 1586 -18 45 -111 48 -134 5 -6 -12 -10 -603 -10
-1645 l0 -1626 25 -24 24 -25 1741 0 1741 0 24 25 25 24 0 2246 c0 1446 -3
2253 -10 2265 -19 36 -63 40 -416 40 l-344 0 0 118 c-1 126 -6 143 -54 162
-16 6 -136 10 -302 10 l-274 0 0 28 c-1 70 -72 159 -149 187 -61 21 -427 21
-486 -1z m464 -170 c16 -21 21 -41 21 -91 0 -55 4 -67 25 -88 l24 -25 286 0
285 0 0 -215 0 -215 -860 0 -860 0 0 215 0 215 285 0 286 0 24 25 c21 21 25
33 25 88 0 50 5 70 21 91 l20 26 199 0 199 0 20 -26z"/>
<path d="M2355 3938 c-42 -23 -45 -36 -45 -205 l0 -163 -165 0 c-229 0 -215
16 -215 -250 0 -266 -14 -250 215 -250 l165 0 0 -165 c0 -229 -16 -215 250
-215 266 0 250 -14 250 215 l0 165 165 0 c229 0 215 -16 215 250 0 266 14 250
-215 250 l-165 0 0 159 c0 88 -3 167 -6 176 -15 38 -56 45 -246 45 -113 0
-191 -5 -203 -12z m297 -313 c4 -221 -8 -209 213 -213 l165 -3 0 -95 0 -94
-161 0 c-88 0 -169 -4 -179 -10 -31 -16 -40 -67 -40 -216 l0 -144 -90 0 -90 0
0 144 c0 149 -9 200 -40 216 -10 6 -91 10 -179 10 l-161 0 0 94 0 95 165 3
c221 4 209 -8 213 213 l4 165 88 0 88 0 4 -165z"/>
<path d="M1210 2437 c-56 -28 -58 -111 -4 -136 18 -8 320 -11 1110 -11 l1085
0 24 25 c43 42 28 103 -29 125 -43 16 -2153 14 -2186 -3z"/>
<path d="M3600 2437 c-56 -28 -58 -111 -4 -136 33 -15 285 -15 318 0 54 25 52
108 -4 136 -34 17 -276 17 -310 0z"/>
<path d="M1203 1868 c-52 -25 -47 -108 7 -135 37 -19 2663 -19 2700 0 56 28
58 111 4 136 -34 15 -2679 15 -2711 -1z"/>
<path d="M1202 1303 c-7 -3 -19 -18 -28 -35 -13 -25 -13 -35 -3 -59 6 -17 20
-34 30 -39 20 -11 2686 -14 2714 -4 8 4 23 20 31 36 13 25 13 35 3 59 -6 17
-20 34 -30 39 -18 10 -2692 13 -2717 3z"/>
<path d="M3174 736 c-52 -23 -62 -91 -18 -125 26 -20 37 -21 388 -21 389 1
385 0 406 54 13 35 -4 75 -40 93 -37 19 -693 18 -736 -1z"/>
</g>
</svg>
