<?xml version="1.0" standalone="no"?>
<!DOCTYPE svg PUBLIC "-//W3C//DTD SVG 20010904//EN"
 "http://www.w3.org/TR/2001/REC-SVG-20010904/DTD/svg10.dtd">
<svg version="1.0" xmlns="http://www.w3.org/2000/svg"
 width="453.000000pt" height="445.000000pt" viewBox="0 0 453.000000 445.000000"
 preserveAspectRatio="xMidYMid meet">

<g transform="translate(0.000000,445.000000) scale(0.100000,-0.100000)"
fill="#000000" stroke="none">
<path d="M2085 4394 c-464 -45 -830 -185 -1175 -449 -444 -341 -743 -862 -821
-1435 -19 -134 -16 -449 4 -581 75 -479 283 -893 614 -1222 190 -188 343 -297
578 -412 321 -158 585 -218 950 -218 365 0 629 60 950 218 231 113 386 223
569 403 338 333 548 747 622 1227 21 136 24 448 5 585 -33 243 -97 453 -206
675 -115 236 -237 406 -421 587 -183 180 -338 290 -569 403 -221 108 -402 165
-638 201 -100 15 -383 26 -462 18z m470 -159 c224 -41 402 -99 585 -190 507
-255 891 -718 1044 -1260 56 -200 70 -313 70 -550 0 -187 -3 -238 -22 -340
-77 -406 -230 -716 -510 -1034 l-38 -44 -23 64 c-33 93 -112 240 -178 330 -75
105 -238 262 -343 331 -120 78 -196 115 -343 163 l-128 42 58 38 c75 49 190
166 238 241 191 297 191 677 0 964 -114 171 -269 287 -475 356 -80 26 -95 28
-255 28 -160 0 -175 -2 -255 -28 -304 -101 -510 -318 -593 -621 -31 -115 -31
-327 1 -438 59 -208 190 -393 356 -502 54 -36 56 -40 35 -46 -198 -58 -315
-109 -444 -194 -110 -73 -272 -228 -348 -333 -66 -91 -145 -238 -178 -331
l-23 -64 -33 39 c-300 347 -439 633 -519 1064 -14 73 -18 147 -18 315 0 237
15 351 70 550 189 670 729 1210 1399 1399 91 25 282 62 365 70 97 9 417 -3
505 -19z m-148 -1010 c242 -56 443 -242 530 -491 25 -72 27 -91 27 -224 0
-130 -3 -153 -27 -225 -38 -115 -91 -198 -182 -291 -116 -117 -237 -182 -391
-209 -100 -18 -158 -18 -258 0 -154 27 -275 92 -391 209 -91 93 -144 176 -182
291 -24 72 -27 95 -27 225 0 133 2 152 27 224 131 373 495 578 874 491z m176
-1610 c182 -32 389 -120 527 -224 144 -109 290 -282 368 -436 24 -49 92 -225
92 -240 0 -9 -143 -118 -231 -175 -229 -151 -471 -246 -764 -302 -102 -19
-153 -22 -340 -22 -187 0 -238 3 -340 22 -293 56 -535 151 -764 302 -88 57
-231 166 -231 175 0 2 14 43 31 92 66 189 162 336 315 484 102 99 172 148 299
211 108 54 222 93 330 112 115 21 592 21 708 1z"/>
</g>
</svg>
